<mxfile host="app.diagrams.net" modified="2021-01-14T19:27:53.272Z" agent="5.0 (X11; Linux x86_64) AppleWebKit/537.36 (KHTML, like Gecko) Chrome/87.0.4280.88 Safari/537.36" etag="VghsvAvR-DW7MEdwsBN0" version="14.0.0" type="github" pages="2">
  <diagram id="sJ5aFxJuWDjSkjldI-xe" name="Hamburgare">
    <mxGraphModel dx="801" dy="433" grid="1" gridSize="10" guides="0" tooltips="1" connect="1" arrows="1" fold="1" page="1" pageScale="1" pageWidth="827" pageHeight="1169" math="0" shadow="0">
      <root>
        <mxCell id="0" />
        <mxCell id="1" parent="0" />
        <mxCell id="CjtwlbmwrYm-ObOfb3An-1" value="  Filialer" style="shape=table;startSize=30;container=1;collapsible=1;childLayout=tableLayout;fixedRows=1;rowLines=0;fontStyle=1;align=left;resizeLast=1;" vertex="1" parent="1">
          <mxGeometry x="20" y="20" width="180" height="130" as="geometry" />
        </mxCell>
        <mxCell id="CjtwlbmwrYm-ObOfb3An-2" value="" style="shape=partialRectangle;collapsible=0;dropTarget=0;pointerEvents=0;fillColor=none;top=0;left=0;bottom=1;right=0;points=[[0,0.5],[1,0.5]];portConstraint=eastwest;" vertex="1" parent="CjtwlbmwrYm-ObOfb3An-1">
          <mxGeometry y="30" width="180" height="30" as="geometry" />
        </mxCell>
        <mxCell id="CjtwlbmwrYm-ObOfb3An-3" value="Id" style="shape=partialRectangle;connectable=0;fillColor=none;top=0;left=0;bottom=0;right=0;fontStyle=5;overflow=hidden;" vertex="1" parent="CjtwlbmwrYm-ObOfb3An-2">
          <mxGeometry width="90" height="30" as="geometry" />
        </mxCell>
        <mxCell id="CjtwlbmwrYm-ObOfb3An-4" value="Ort" style="shape=partialRectangle;connectable=0;fillColor=none;top=0;left=0;bottom=0;right=0;align=center;spacingLeft=6;fontStyle=1;overflow=hidden;" vertex="1" parent="CjtwlbmwrYm-ObOfb3An-2">
          <mxGeometry x="90" width="90" height="30" as="geometry" />
        </mxCell>
        <mxCell id="CjtwlbmwrYm-ObOfb3An-6" style="shape=partialRectangle;collapsible=0;dropTarget=0;pointerEvents=0;fillColor=none;top=0;left=0;bottom=1;right=0;points=[[0,0.5],[1,0.5]];portConstraint=eastwest;" vertex="1" parent="CjtwlbmwrYm-ObOfb3An-1">
          <mxGeometry y="60" width="180" height="30" as="geometry" />
        </mxCell>
        <mxCell id="CjtwlbmwrYm-ObOfb3An-7" value="11" style="shape=partialRectangle;connectable=0;fillColor=none;top=0;left=0;bottom=0;right=0;fontStyle=0;overflow=hidden;" vertex="1" parent="CjtwlbmwrYm-ObOfb3An-6">
          <mxGeometry width="90" height="30" as="geometry" />
        </mxCell>
        <mxCell id="CjtwlbmwrYm-ObOfb3An-8" value="Härnösand" style="shape=partialRectangle;connectable=0;fillColor=none;top=0;left=0;bottom=0;right=0;align=center;spacingLeft=6;fontStyle=0;overflow=hidden;" vertex="1" parent="CjtwlbmwrYm-ObOfb3An-6">
          <mxGeometry x="90" width="90" height="30" as="geometry" />
        </mxCell>
        <mxCell id="CjtwlbmwrYm-ObOfb3An-10" style="shape=partialRectangle;collapsible=0;dropTarget=0;pointerEvents=0;fillColor=none;top=0;left=0;bottom=1;right=0;points=[[0,0.5],[1,0.5]];portConstraint=eastwest;" vertex="1" parent="CjtwlbmwrYm-ObOfb3An-1">
          <mxGeometry y="90" width="180" height="30" as="geometry" />
        </mxCell>
        <mxCell id="CjtwlbmwrYm-ObOfb3An-11" value="13" style="shape=partialRectangle;connectable=0;fillColor=none;top=0;left=0;bottom=0;right=0;fontStyle=0;overflow=hidden;" vertex="1" parent="CjtwlbmwrYm-ObOfb3An-10">
          <mxGeometry width="90" height="30" as="geometry" />
        </mxCell>
        <mxCell id="CjtwlbmwrYm-ObOfb3An-12" value="Sundsvall" style="shape=partialRectangle;connectable=0;fillColor=none;top=0;left=0;bottom=0;right=0;align=center;spacingLeft=6;fontStyle=0;overflow=hidden;" vertex="1" parent="CjtwlbmwrYm-ObOfb3An-10">
          <mxGeometry x="90" width="90" height="30" as="geometry" />
        </mxCell>
        <mxCell id="CjtwlbmwrYm-ObOfb3An-30" value="  Anstallda" style="shape=table;startSize=30;container=1;collapsible=1;childLayout=tableLayout;fixedRows=1;rowLines=0;fontStyle=1;align=left;resizeLast=1;" vertex="1" parent="1">
          <mxGeometry x="20" y="200" width="450" height="220" as="geometry" />
        </mxCell>
        <mxCell id="CjtwlbmwrYm-ObOfb3An-31" value="" style="shape=partialRectangle;collapsible=0;dropTarget=0;pointerEvents=0;fillColor=none;top=0;left=0;bottom=1;right=0;points=[[0,0.5],[1,0.5]];portConstraint=eastwest;" vertex="1" parent="CjtwlbmwrYm-ObOfb3An-30">
          <mxGeometry y="30" width="450" height="30" as="geometry" />
        </mxCell>
        <mxCell id="CjtwlbmwrYm-ObOfb3An-32" value="Anstallningsnr" style="shape=partialRectangle;connectable=0;fillColor=none;top=0;left=0;bottom=0;right=0;fontStyle=5;overflow=hidden;" vertex="1" parent="CjtwlbmwrYm-ObOfb3An-31">
          <mxGeometry width="100" height="30" as="geometry" />
        </mxCell>
        <mxCell id="CjtwlbmwrYm-ObOfb3An-33" value="Fornamn" style="shape=partialRectangle;connectable=0;fillColor=none;top=0;left=0;bottom=0;right=0;align=center;spacingLeft=6;fontStyle=1;overflow=hidden;" vertex="1" parent="CjtwlbmwrYm-ObOfb3An-31">
          <mxGeometry x="100" width="80" height="30" as="geometry" />
        </mxCell>
        <mxCell id="CjtwlbmwrYm-ObOfb3An-64" value="Efternamn" style="shape=partialRectangle;connectable=0;fillColor=none;top=0;left=0;bottom=0;right=0;align=center;spacingLeft=6;fontStyle=1;overflow=hidden;" vertex="1" parent="CjtwlbmwrYm-ObOfb3An-31">
          <mxGeometry x="180" width="90" height="30" as="geometry" />
        </mxCell>
        <mxCell id="CjtwlbmwrYm-ObOfb3An-58" value="Arbetsplats" style="shape=partialRectangle;connectable=0;fillColor=none;top=0;left=0;bottom=0;right=0;align=center;spacingLeft=6;fontStyle=1;overflow=hidden;" vertex="1" parent="CjtwlbmwrYm-ObOfb3An-31">
          <mxGeometry x="270" width="90" height="30" as="geometry" />
        </mxCell>
        <mxCell id="CjtwlbmwrYm-ObOfb3An-52" value="Loneniva" style="shape=partialRectangle;connectable=0;fillColor=none;top=0;left=0;bottom=0;right=0;align=center;spacingLeft=6;fontStyle=1;overflow=hidden;" vertex="1" parent="CjtwlbmwrYm-ObOfb3An-31">
          <mxGeometry x="360" width="90" height="30" as="geometry" />
        </mxCell>
        <mxCell id="CjtwlbmwrYm-ObOfb3An-37" style="shape=partialRectangle;collapsible=0;dropTarget=0;pointerEvents=0;fillColor=none;top=0;left=0;bottom=1;right=0;points=[[0,0.5],[1,0.5]];portConstraint=eastwest;" vertex="1" parent="CjtwlbmwrYm-ObOfb3An-30">
          <mxGeometry y="60" width="450" height="30" as="geometry" />
        </mxCell>
        <mxCell id="CjtwlbmwrYm-ObOfb3An-38" value="1023" style="shape=partialRectangle;connectable=0;fillColor=none;top=0;left=0;bottom=0;right=0;fontStyle=0;overflow=hidden;" vertex="1" parent="CjtwlbmwrYm-ObOfb3An-37">
          <mxGeometry width="100" height="30" as="geometry" />
        </mxCell>
        <mxCell id="CjtwlbmwrYm-ObOfb3An-39" value="Pelle" style="shape=partialRectangle;connectable=0;fillColor=none;top=0;left=0;bottom=0;right=0;align=center;spacingLeft=6;fontStyle=0;overflow=hidden;" vertex="1" parent="CjtwlbmwrYm-ObOfb3An-37">
          <mxGeometry x="100" width="80" height="30" as="geometry" />
        </mxCell>
        <mxCell id="CjtwlbmwrYm-ObOfb3An-65" value="Fisk" style="shape=partialRectangle;connectable=0;fillColor=none;top=0;left=0;bottom=0;right=0;align=center;spacingLeft=6;fontStyle=0;overflow=hidden;" vertex="1" parent="CjtwlbmwrYm-ObOfb3An-37">
          <mxGeometry x="180" width="90" height="30" as="geometry" />
        </mxCell>
        <mxCell id="CjtwlbmwrYm-ObOfb3An-59" value="11" style="shape=partialRectangle;connectable=0;fillColor=none;top=0;left=0;bottom=0;right=0;align=center;spacingLeft=6;fontStyle=0;overflow=hidden;" vertex="1" parent="CjtwlbmwrYm-ObOfb3An-37">
          <mxGeometry x="270" width="90" height="30" as="geometry" />
        </mxCell>
        <mxCell id="CjtwlbmwrYm-ObOfb3An-53" value="1" style="shape=partialRectangle;connectable=0;fillColor=none;top=0;left=0;bottom=0;right=0;align=center;spacingLeft=6;fontStyle=0;overflow=hidden;" vertex="1" parent="CjtwlbmwrYm-ObOfb3An-37">
          <mxGeometry x="360" width="90" height="30" as="geometry" />
        </mxCell>
        <mxCell id="CjtwlbmwrYm-ObOfb3An-40" style="shape=partialRectangle;collapsible=0;dropTarget=0;pointerEvents=0;fillColor=none;top=0;left=0;bottom=1;right=0;points=[[0,0.5],[1,0.5]];portConstraint=eastwest;" vertex="1" parent="CjtwlbmwrYm-ObOfb3An-30">
          <mxGeometry y="90" width="450" height="30" as="geometry" />
        </mxCell>
        <mxCell id="CjtwlbmwrYm-ObOfb3An-41" value="2020" style="shape=partialRectangle;connectable=0;fillColor=none;top=0;left=0;bottom=0;right=0;fontStyle=0;overflow=hidden;" vertex="1" parent="CjtwlbmwrYm-ObOfb3An-40">
          <mxGeometry width="100" height="30" as="geometry" />
        </mxCell>
        <mxCell id="CjtwlbmwrYm-ObOfb3An-42" value="Dag" style="shape=partialRectangle;connectable=0;fillColor=none;top=0;left=0;bottom=0;right=0;align=center;spacingLeft=6;fontStyle=0;overflow=hidden;" vertex="1" parent="CjtwlbmwrYm-ObOfb3An-40">
          <mxGeometry x="100" width="80" height="30" as="geometry" />
        </mxCell>
        <mxCell id="CjtwlbmwrYm-ObOfb3An-66" value="Stock" style="shape=partialRectangle;connectable=0;fillColor=none;top=0;left=0;bottom=0;right=0;align=center;spacingLeft=6;fontStyle=0;overflow=hidden;" vertex="1" parent="CjtwlbmwrYm-ObOfb3An-40">
          <mxGeometry x="180" width="90" height="30" as="geometry" />
        </mxCell>
        <mxCell id="CjtwlbmwrYm-ObOfb3An-60" value="11" style="shape=partialRectangle;connectable=0;fillColor=none;top=0;left=0;bottom=0;right=0;align=center;spacingLeft=6;fontStyle=0;overflow=hidden;" vertex="1" parent="CjtwlbmwrYm-ObOfb3An-40">
          <mxGeometry x="270" width="90" height="30" as="geometry" />
        </mxCell>
        <mxCell id="CjtwlbmwrYm-ObOfb3An-54" value="2" style="shape=partialRectangle;connectable=0;fillColor=none;top=0;left=0;bottom=0;right=0;align=center;spacingLeft=6;fontStyle=0;overflow=hidden;" vertex="1" parent="CjtwlbmwrYm-ObOfb3An-40">
          <mxGeometry x="360" width="90" height="30" as="geometry" />
        </mxCell>
        <mxCell id="CjtwlbmwrYm-ObOfb3An-43" style="shape=partialRectangle;collapsible=0;dropTarget=0;pointerEvents=0;fillColor=none;top=0;left=0;bottom=1;right=0;points=[[0,0.5],[1,0.5]];portConstraint=eastwest;" vertex="1" parent="CjtwlbmwrYm-ObOfb3An-30">
          <mxGeometry y="120" width="450" height="30" as="geometry" />
        </mxCell>
        <mxCell id="CjtwlbmwrYm-ObOfb3An-44" value="732" style="shape=partialRectangle;connectable=0;fillColor=none;top=0;left=0;bottom=0;right=0;fontStyle=0;overflow=hidden;" vertex="1" parent="CjtwlbmwrYm-ObOfb3An-43">
          <mxGeometry width="100" height="30" as="geometry" />
        </mxCell>
        <mxCell id="CjtwlbmwrYm-ObOfb3An-45" value="Hyacint" style="shape=partialRectangle;connectable=0;fillColor=none;top=0;left=0;bottom=0;right=0;align=center;spacingLeft=6;fontStyle=0;overflow=hidden;" vertex="1" parent="CjtwlbmwrYm-ObOfb3An-43">
          <mxGeometry x="100" width="80" height="30" as="geometry" />
        </mxCell>
        <mxCell id="CjtwlbmwrYm-ObOfb3An-67" value="Bucket" style="shape=partialRectangle;connectable=0;fillColor=none;top=0;left=0;bottom=0;right=0;align=center;spacingLeft=6;fontStyle=0;overflow=hidden;" vertex="1" parent="CjtwlbmwrYm-ObOfb3An-43">
          <mxGeometry x="180" width="90" height="30" as="geometry" />
        </mxCell>
        <mxCell id="CjtwlbmwrYm-ObOfb3An-61" value="13" style="shape=partialRectangle;connectable=0;fillColor=none;top=0;left=0;bottom=0;right=0;align=center;spacingLeft=6;fontStyle=0;overflow=hidden;" vertex="1" parent="CjtwlbmwrYm-ObOfb3An-43">
          <mxGeometry x="270" width="90" height="30" as="geometry" />
        </mxCell>
        <mxCell id="CjtwlbmwrYm-ObOfb3An-55" value="1" style="shape=partialRectangle;connectable=0;fillColor=none;top=0;left=0;bottom=0;right=0;align=center;spacingLeft=6;fontStyle=0;overflow=hidden;" vertex="1" parent="CjtwlbmwrYm-ObOfb3An-43">
          <mxGeometry x="360" width="90" height="30" as="geometry" />
        </mxCell>
        <mxCell id="CjtwlbmwrYm-ObOfb3An-46" style="shape=partialRectangle;collapsible=0;dropTarget=0;pointerEvents=0;fillColor=none;top=0;left=0;bottom=1;right=0;points=[[0,0.5],[1,0.5]];portConstraint=eastwest;" vertex="1" parent="CjtwlbmwrYm-ObOfb3An-30">
          <mxGeometry y="150" width="450" height="30" as="geometry" />
        </mxCell>
        <mxCell id="CjtwlbmwrYm-ObOfb3An-47" value="455" style="shape=partialRectangle;connectable=0;fillColor=none;top=0;left=0;bottom=0;right=0;fontStyle=0;overflow=hidden;" vertex="1" parent="CjtwlbmwrYm-ObOfb3An-46">
          <mxGeometry width="100" height="30" as="geometry" />
        </mxCell>
        <mxCell id="CjtwlbmwrYm-ObOfb3An-48" value="Kalle" style="shape=partialRectangle;connectable=0;fillColor=none;top=0;left=0;bottom=0;right=0;align=center;spacingLeft=6;fontStyle=0;overflow=hidden;" vertex="1" parent="CjtwlbmwrYm-ObOfb3An-46">
          <mxGeometry x="100" width="80" height="30" as="geometry" />
        </mxCell>
        <mxCell id="CjtwlbmwrYm-ObOfb3An-68" value="Ek" style="shape=partialRectangle;connectable=0;fillColor=none;top=0;left=0;bottom=0;right=0;align=center;spacingLeft=6;fontStyle=0;overflow=hidden;" vertex="1" parent="CjtwlbmwrYm-ObOfb3An-46">
          <mxGeometry x="180" width="90" height="30" as="geometry" />
        </mxCell>
        <mxCell id="CjtwlbmwrYm-ObOfb3An-62" value="11" style="shape=partialRectangle;connectable=0;fillColor=none;top=0;left=0;bottom=0;right=0;align=center;spacingLeft=6;fontStyle=0;overflow=hidden;" vertex="1" parent="CjtwlbmwrYm-ObOfb3An-46">
          <mxGeometry x="270" width="90" height="30" as="geometry" />
        </mxCell>
        <mxCell id="CjtwlbmwrYm-ObOfb3An-56" value="3" style="shape=partialRectangle;connectable=0;fillColor=none;top=0;left=0;bottom=0;right=0;align=center;spacingLeft=6;fontStyle=0;overflow=hidden;" vertex="1" parent="CjtwlbmwrYm-ObOfb3An-46">
          <mxGeometry x="360" width="90" height="30" as="geometry" />
        </mxCell>
        <mxCell id="CjtwlbmwrYm-ObOfb3An-49" style="shape=partialRectangle;collapsible=0;dropTarget=0;pointerEvents=0;fillColor=none;top=0;left=0;bottom=1;right=0;points=[[0,0.5],[1,0.5]];portConstraint=eastwest;" vertex="1" parent="CjtwlbmwrYm-ObOfb3An-30">
          <mxGeometry y="180" width="450" height="30" as="geometry" />
        </mxCell>
        <mxCell id="CjtwlbmwrYm-ObOfb3An-50" value="362" style="shape=partialRectangle;connectable=0;fillColor=none;top=0;left=0;bottom=0;right=0;fontStyle=0;overflow=hidden;" vertex="1" parent="CjtwlbmwrYm-ObOfb3An-49">
          <mxGeometry width="100" height="30" as="geometry" />
        </mxCell>
        <mxCell id="CjtwlbmwrYm-ObOfb3An-51" value="Hans" style="shape=partialRectangle;connectable=0;fillColor=none;top=0;left=0;bottom=0;right=0;align=center;spacingLeft=6;fontStyle=0;overflow=hidden;" vertex="1" parent="CjtwlbmwrYm-ObOfb3An-49">
          <mxGeometry x="100" width="80" height="30" as="geometry" />
        </mxCell>
        <mxCell id="CjtwlbmwrYm-ObOfb3An-69" value="Björk" style="shape=partialRectangle;connectable=0;fillColor=none;top=0;left=0;bottom=0;right=0;align=center;spacingLeft=6;fontStyle=0;overflow=hidden;" vertex="1" parent="CjtwlbmwrYm-ObOfb3An-49">
          <mxGeometry x="180" width="90" height="30" as="geometry" />
        </mxCell>
        <mxCell id="CjtwlbmwrYm-ObOfb3An-63" value="13" style="shape=partialRectangle;connectable=0;fillColor=none;top=0;left=0;bottom=0;right=0;align=center;spacingLeft=6;fontStyle=0;overflow=hidden;" vertex="1" parent="CjtwlbmwrYm-ObOfb3An-49">
          <mxGeometry x="270" width="90" height="30" as="geometry" />
        </mxCell>
        <mxCell id="CjtwlbmwrYm-ObOfb3An-57" value="2" style="shape=partialRectangle;connectable=0;fillColor=none;top=0;left=0;bottom=0;right=0;align=center;spacingLeft=6;fontStyle=0;overflow=hidden;" vertex="1" parent="CjtwlbmwrYm-ObOfb3An-49">
          <mxGeometry x="360" width="90" height="30" as="geometry" />
        </mxCell>
        <mxCell id="CjtwlbmwrYm-ObOfb3An-73" value="  Loner" style="shape=table;startSize=30;container=1;collapsible=1;childLayout=tableLayout;fixedRows=1;rowLines=0;fontStyle=1;align=left;resizeLast=1;" vertex="1" parent="1">
          <mxGeometry x="230" y="20" width="160" height="160" as="geometry" />
        </mxCell>
        <mxCell id="CjtwlbmwrYm-ObOfb3An-74" value="" style="shape=partialRectangle;collapsible=0;dropTarget=0;pointerEvents=0;fillColor=none;top=0;left=0;bottom=1;right=0;points=[[0,0.5],[1,0.5]];portConstraint=eastwest;" vertex="1" parent="CjtwlbmwrYm-ObOfb3An-73">
          <mxGeometry y="30" width="160" height="30" as="geometry" />
        </mxCell>
        <mxCell id="CjtwlbmwrYm-ObOfb3An-75" value="Loneniva" style="shape=partialRectangle;connectable=0;fillColor=none;top=0;left=0;bottom=0;right=0;fontStyle=5;overflow=hidden;" vertex="1" parent="CjtwlbmwrYm-ObOfb3An-74">
          <mxGeometry width="80" height="30" as="geometry" />
        </mxCell>
        <mxCell id="CjtwlbmwrYm-ObOfb3An-76" value="Kr/tim" style="shape=partialRectangle;connectable=0;fillColor=none;top=0;left=0;bottom=0;right=0;align=center;spacingLeft=6;fontStyle=1;overflow=hidden;" vertex="1" parent="CjtwlbmwrYm-ObOfb3An-74">
          <mxGeometry x="80" width="80" height="30" as="geometry" />
        </mxCell>
        <mxCell id="CjtwlbmwrYm-ObOfb3An-77" style="shape=partialRectangle;collapsible=0;dropTarget=0;pointerEvents=0;fillColor=none;top=0;left=0;bottom=1;right=0;points=[[0,0.5],[1,0.5]];portConstraint=eastwest;" vertex="1" parent="CjtwlbmwrYm-ObOfb3An-73">
          <mxGeometry y="60" width="160" height="30" as="geometry" />
        </mxCell>
        <mxCell id="CjtwlbmwrYm-ObOfb3An-78" value="1" style="shape=partialRectangle;connectable=0;fillColor=none;top=0;left=0;bottom=0;right=0;fontStyle=0;overflow=hidden;" vertex="1" parent="CjtwlbmwrYm-ObOfb3An-77">
          <mxGeometry width="80" height="30" as="geometry" />
        </mxCell>
        <mxCell id="CjtwlbmwrYm-ObOfb3An-79" value="150" style="shape=partialRectangle;connectable=0;fillColor=none;top=0;left=0;bottom=0;right=0;align=center;spacingLeft=6;fontStyle=0;overflow=hidden;" vertex="1" parent="CjtwlbmwrYm-ObOfb3An-77">
          <mxGeometry x="80" width="80" height="30" as="geometry" />
        </mxCell>
        <mxCell id="CjtwlbmwrYm-ObOfb3An-80" style="shape=partialRectangle;collapsible=0;dropTarget=0;pointerEvents=0;fillColor=none;top=0;left=0;bottom=1;right=0;points=[[0,0.5],[1,0.5]];portConstraint=eastwest;" vertex="1" parent="CjtwlbmwrYm-ObOfb3An-73">
          <mxGeometry y="90" width="160" height="30" as="geometry" />
        </mxCell>
        <mxCell id="CjtwlbmwrYm-ObOfb3An-81" value="2" style="shape=partialRectangle;connectable=0;fillColor=none;top=0;left=0;bottom=0;right=0;fontStyle=0;overflow=hidden;" vertex="1" parent="CjtwlbmwrYm-ObOfb3An-80">
          <mxGeometry width="80" height="30" as="geometry" />
        </mxCell>
        <mxCell id="CjtwlbmwrYm-ObOfb3An-82" value="200" style="shape=partialRectangle;connectable=0;fillColor=none;top=0;left=0;bottom=0;right=0;align=center;spacingLeft=6;fontStyle=0;overflow=hidden;" vertex="1" parent="CjtwlbmwrYm-ObOfb3An-80">
          <mxGeometry x="80" width="80" height="30" as="geometry" />
        </mxCell>
        <mxCell id="CjtwlbmwrYm-ObOfb3An-83" style="shape=partialRectangle;collapsible=0;dropTarget=0;pointerEvents=0;fillColor=none;top=0;left=0;bottom=1;right=0;points=[[0,0.5],[1,0.5]];portConstraint=eastwest;" vertex="1" parent="CjtwlbmwrYm-ObOfb3An-73">
          <mxGeometry y="120" width="160" height="30" as="geometry" />
        </mxCell>
        <mxCell id="CjtwlbmwrYm-ObOfb3An-84" value="3" style="shape=partialRectangle;connectable=0;fillColor=none;top=0;left=0;bottom=0;right=0;fontStyle=0;overflow=hidden;" vertex="1" parent="CjtwlbmwrYm-ObOfb3An-83">
          <mxGeometry width="80" height="30" as="geometry" />
        </mxCell>
        <mxCell id="CjtwlbmwrYm-ObOfb3An-85" value="300" style="shape=partialRectangle;connectable=0;fillColor=none;top=0;left=0;bottom=0;right=0;align=center;spacingLeft=6;fontStyle=0;overflow=hidden;" vertex="1" parent="CjtwlbmwrYm-ObOfb3An-83">
          <mxGeometry x="80" width="80" height="30" as="geometry" />
        </mxCell>
      </root>
    </mxGraphModel>
  </diagram>
  <diagram id="qoOEKDqSzADvniqhuOCL" name="Tekniknämnden">
    <mxGraphModel dx="801" dy="433" grid="1" gridSize="10" guides="1" tooltips="1" connect="1" arrows="1" fold="1" page="1" pageScale="1" pageWidth="827" pageHeight="1169" math="0" shadow="0">
      <root>
        <mxCell id="Xf09CCIIPF4Ikrkz7xVH-0" />
        <mxCell id="Xf09CCIIPF4Ikrkz7xVH-1" parent="Xf09CCIIPF4Ikrkz7xVH-0" />
        <mxCell id="KIhVacgabyp0rp23NiQ3-0" value="  Kontaktpersoner" style="shape=table;startSize=30;container=1;collapsible=1;childLayout=tableLayout;fixedRows=1;rowLines=0;fontStyle=1;align=left;resizeLast=1;" vertex="1" parent="Xf09CCIIPF4Ikrkz7xVH-1">
          <mxGeometry x="20" y="20" width="350" height="100" as="geometry" />
        </mxCell>
        <mxCell id="KIhVacgabyp0rp23NiQ3-1" value="" style="shape=partialRectangle;collapsible=0;dropTarget=0;pointerEvents=0;fillColor=none;top=0;left=0;bottom=1;right=0;points=[[0,0.5],[1,0.5]];portConstraint=eastwest;" vertex="1" parent="KIhVacgabyp0rp23NiQ3-0">
          <mxGeometry y="30" width="350" height="30" as="geometry" />
        </mxCell>
        <mxCell id="KIhVacgabyp0rp23NiQ3-2" value="NamnID" style="shape=partialRectangle;connectable=0;fillColor=none;top=0;left=0;bottom=0;right=0;fontStyle=5;overflow=hidden;" vertex="1" parent="KIhVacgabyp0rp23NiQ3-1">
          <mxGeometry width="90" height="30" as="geometry" />
        </mxCell>
        <mxCell id="KIhVacgabyp0rp23NiQ3-3" value="Fornamn" style="shape=partialRectangle;connectable=0;fillColor=none;top=0;left=0;bottom=0;right=0;align=center;spacingLeft=6;fontStyle=1;overflow=hidden;" vertex="1" parent="KIhVacgabyp0rp23NiQ3-1">
          <mxGeometry x="90" width="70" height="30" as="geometry" />
        </mxCell>
        <mxCell id="KIhVacgabyp0rp23NiQ3-4" value="Efternamn" style="shape=partialRectangle;connectable=0;fillColor=none;top=0;left=0;bottom=0;right=0;align=center;spacingLeft=6;fontStyle=1;overflow=hidden;" vertex="1" parent="KIhVacgabyp0rp23NiQ3-1">
          <mxGeometry x="160" width="100" height="30" as="geometry" />
        </mxCell>
        <mxCell id="KIhVacgabyp0rp23NiQ3-5" value="Forening" style="shape=partialRectangle;connectable=0;fillColor=none;top=0;left=0;bottom=0;right=0;align=center;spacingLeft=6;fontStyle=1;overflow=hidden;" vertex="1" parent="KIhVacgabyp0rp23NiQ3-1">
          <mxGeometry x="260" width="90" height="30" as="geometry" />
        </mxCell>
        <mxCell id="KIhVacgabyp0rp23NiQ3-7" style="shape=partialRectangle;collapsible=0;dropTarget=0;pointerEvents=0;fillColor=none;top=0;left=0;bottom=1;right=0;points=[[0,0.5],[1,0.5]];portConstraint=eastwest;" vertex="1" parent="KIhVacgabyp0rp23NiQ3-0">
          <mxGeometry y="60" width="350" height="30" as="geometry" />
        </mxCell>
        <mxCell id="KIhVacgabyp0rp23NiQ3-8" value="12" style="shape=partialRectangle;connectable=0;fillColor=none;top=0;left=0;bottom=0;right=0;fontStyle=0;overflow=hidden;" vertex="1" parent="KIhVacgabyp0rp23NiQ3-7">
          <mxGeometry width="90" height="30" as="geometry" />
        </mxCell>
        <mxCell id="KIhVacgabyp0rp23NiQ3-9" value="Pelle" style="shape=partialRectangle;connectable=0;fillColor=none;top=0;left=0;bottom=0;right=0;align=center;spacingLeft=6;fontStyle=0;overflow=hidden;" vertex="1" parent="KIhVacgabyp0rp23NiQ3-7">
          <mxGeometry x="90" width="70" height="30" as="geometry" />
        </mxCell>
        <mxCell id="KIhVacgabyp0rp23NiQ3-10" value="Björk" style="shape=partialRectangle;connectable=0;fillColor=none;top=0;left=0;bottom=0;right=0;align=center;spacingLeft=6;fontStyle=0;overflow=hidden;" vertex="1" parent="KIhVacgabyp0rp23NiQ3-7">
          <mxGeometry x="160" width="100" height="30" as="geometry" />
        </mxCell>
        <mxCell id="KIhVacgabyp0rp23NiQ3-11" value="7" style="shape=partialRectangle;connectable=0;fillColor=none;top=0;left=0;bottom=0;right=0;align=center;spacingLeft=6;fontStyle=0;overflow=hidden;" vertex="1" parent="KIhVacgabyp0rp23NiQ3-7">
          <mxGeometry x="260" width="90" height="30" as="geometry" />
        </mxCell>
        <mxCell id="KIhVacgabyp0rp23NiQ3-14" value="   Foreningar" style="shape=table;startSize=30;container=1;collapsible=1;childLayout=tableLayout;fixedRows=1;rowLines=0;fontStyle=1;align=left;resizeLast=1;" vertex="1" parent="Xf09CCIIPF4Ikrkz7xVH-1">
          <mxGeometry x="20" y="150" width="200" height="100" as="geometry" />
        </mxCell>
        <mxCell id="KIhVacgabyp0rp23NiQ3-15" value="" style="shape=partialRectangle;collapsible=0;dropTarget=0;pointerEvents=0;fillColor=none;top=0;left=0;bottom=1;right=0;points=[[0,0.5],[1,0.5]];portConstraint=eastwest;" vertex="1" parent="KIhVacgabyp0rp23NiQ3-14">
          <mxGeometry y="30" width="200" height="30" as="geometry" />
        </mxCell>
        <mxCell id="KIhVacgabyp0rp23NiQ3-16" value="ForeningsID" style="shape=partialRectangle;connectable=0;fillColor=none;top=0;left=0;bottom=0;right=0;fontStyle=5;overflow=hidden;" vertex="1" parent="KIhVacgabyp0rp23NiQ3-15">
          <mxGeometry width="90" height="30" as="geometry" />
        </mxCell>
        <mxCell id="KIhVacgabyp0rp23NiQ3-17" value="Namn" style="shape=partialRectangle;connectable=0;fillColor=none;top=0;left=0;bottom=0;right=0;align=center;spacingLeft=6;fontStyle=1;overflow=hidden;" vertex="1" parent="KIhVacgabyp0rp23NiQ3-15">
          <mxGeometry x="90" width="110" height="30" as="geometry" />
        </mxCell>
        <mxCell id="KIhVacgabyp0rp23NiQ3-18" style="shape=partialRectangle;collapsible=0;dropTarget=0;pointerEvents=0;fillColor=none;top=0;left=0;bottom=1;right=0;points=[[0,0.5],[1,0.5]];portConstraint=eastwest;" vertex="1" parent="KIhVacgabyp0rp23NiQ3-14">
          <mxGeometry y="60" width="200" height="30" as="geometry" />
        </mxCell>
        <mxCell id="KIhVacgabyp0rp23NiQ3-19" value="7" style="shape=partialRectangle;connectable=0;fillColor=none;top=0;left=0;bottom=0;right=0;fontStyle=0;overflow=hidden;" vertex="1" parent="KIhVacgabyp0rp23NiQ3-18">
          <mxGeometry width="90" height="30" as="geometry" />
        </mxCell>
        <mxCell id="KIhVacgabyp0rp23NiQ3-20" value="Fengersfors IK" style="shape=partialRectangle;connectable=0;fillColor=none;top=0;left=0;bottom=0;right=0;align=center;spacingLeft=6;fontStyle=0;overflow=hidden;" vertex="1" parent="KIhVacgabyp0rp23NiQ3-18">
          <mxGeometry x="90" width="110" height="30" as="geometry" />
        </mxCell>
        <mxCell id="KIhVacgabyp0rp23NiQ3-21" value="   Telefon" style="shape=table;startSize=30;container=1;collapsible=1;childLayout=tableLayout;fixedRows=1;rowLines=0;fontStyle=1;align=left;resizeLast=1;" vertex="1" parent="Xf09CCIIPF4Ikrkz7xVH-1">
          <mxGeometry x="400" y="20" width="200" height="100" as="geometry" />
        </mxCell>
        <mxCell id="KIhVacgabyp0rp23NiQ3-22" value="" style="shape=partialRectangle;collapsible=0;dropTarget=0;pointerEvents=0;fillColor=none;top=0;left=0;bottom=1;right=0;points=[[0,0.5],[1,0.5]];portConstraint=eastwest;" vertex="1" parent="KIhVacgabyp0rp23NiQ3-21">
          <mxGeometry y="30" width="200" height="30" as="geometry" />
        </mxCell>
        <mxCell id="KIhVacgabyp0rp23NiQ3-23" value="NamnID" style="shape=partialRectangle;connectable=0;fillColor=none;top=0;left=0;bottom=0;right=0;fontStyle=5;overflow=hidden;" vertex="1" parent="KIhVacgabyp0rp23NiQ3-22">
          <mxGeometry width="90" height="30" as="geometry" />
        </mxCell>
        <mxCell id="KIhVacgabyp0rp23NiQ3-24" value="Telnr" style="shape=partialRectangle;connectable=0;fillColor=none;top=0;left=0;bottom=0;right=0;align=center;spacingLeft=6;fontStyle=5;overflow=hidden;" vertex="1" parent="KIhVacgabyp0rp23NiQ3-22">
          <mxGeometry x="90" width="110" height="30" as="geometry" />
        </mxCell>
        <mxCell id="KIhVacgabyp0rp23NiQ3-25" style="shape=partialRectangle;collapsible=0;dropTarget=0;pointerEvents=0;fillColor=none;top=0;left=0;bottom=1;right=0;points=[[0,0.5],[1,0.5]];portConstraint=eastwest;" vertex="1" parent="KIhVacgabyp0rp23NiQ3-21">
          <mxGeometry y="60" width="200" height="30" as="geometry" />
        </mxCell>
        <mxCell id="KIhVacgabyp0rp23NiQ3-26" value="12" style="shape=partialRectangle;connectable=0;fillColor=none;top=0;left=0;bottom=0;right=0;fontStyle=0;overflow=hidden;" vertex="1" parent="KIhVacgabyp0rp23NiQ3-25">
          <mxGeometry width="90" height="30" as="geometry" />
        </mxCell>
        <mxCell id="KIhVacgabyp0rp23NiQ3-27" value="0532-43074" style="shape=partialRectangle;connectable=0;fillColor=none;top=0;left=0;bottom=0;right=0;align=center;spacingLeft=6;fontStyle=0;overflow=hidden;" vertex="1" parent="KIhVacgabyp0rp23NiQ3-25">
          <mxGeometry x="90" width="110" height="30" as="geometry" />
        </mxCell>
        <mxCell id="KIhVacgabyp0rp23NiQ3-28" value="   Arenor" style="shape=table;startSize=30;container=1;collapsible=1;childLayout=tableLayout;fixedRows=1;rowLines=0;fontStyle=1;align=left;resizeLast=1;" vertex="1" parent="Xf09CCIIPF4Ikrkz7xVH-1">
          <mxGeometry x="240" y="150" width="200" height="100" as="geometry" />
        </mxCell>
        <mxCell id="KIhVacgabyp0rp23NiQ3-29" value="" style="shape=partialRectangle;collapsible=0;dropTarget=0;pointerEvents=0;fillColor=none;top=0;left=0;bottom=1;right=0;points=[[0,0.5],[1,0.5]];portConstraint=eastwest;" vertex="1" parent="KIhVacgabyp0rp23NiQ3-28">
          <mxGeometry y="30" width="200" height="30" as="geometry" />
        </mxCell>
        <mxCell id="KIhVacgabyp0rp23NiQ3-30" value="PlanID" style="shape=partialRectangle;connectable=0;fillColor=none;top=0;left=0;bottom=0;right=0;fontStyle=5;overflow=hidden;" vertex="1" parent="KIhVacgabyp0rp23NiQ3-29">
          <mxGeometry width="90" height="30" as="geometry" />
        </mxCell>
        <mxCell id="KIhVacgabyp0rp23NiQ3-31" value="ArenaNamn" style="shape=partialRectangle;connectable=0;fillColor=none;top=0;left=0;bottom=0;right=0;align=center;spacingLeft=6;fontStyle=1;overflow=hidden;" vertex="1" parent="KIhVacgabyp0rp23NiQ3-29">
          <mxGeometry x="90" width="110" height="30" as="geometry" />
        </mxCell>
        <mxCell id="KIhVacgabyp0rp23NiQ3-32" style="shape=partialRectangle;collapsible=0;dropTarget=0;pointerEvents=0;fillColor=none;top=0;left=0;bottom=1;right=0;points=[[0,0.5],[1,0.5]];portConstraint=eastwest;" vertex="1" parent="KIhVacgabyp0rp23NiQ3-28">
          <mxGeometry y="60" width="200" height="30" as="geometry" />
        </mxCell>
        <mxCell id="KIhVacgabyp0rp23NiQ3-33" value="11" style="shape=partialRectangle;connectable=0;fillColor=none;top=0;left=0;bottom=0;right=0;fontStyle=0;overflow=hidden;" vertex="1" parent="KIhVacgabyp0rp23NiQ3-32">
          <mxGeometry width="90" height="30" as="geometry" />
        </mxCell>
        <mxCell id="KIhVacgabyp0rp23NiQ3-34" value="Fengershof" style="shape=partialRectangle;connectable=0;fillColor=none;top=0;left=0;bottom=0;right=0;align=center;spacingLeft=6;fontStyle=0;overflow=hidden;" vertex="1" parent="KIhVacgabyp0rp23NiQ3-32">
          <mxGeometry x="90" width="110" height="30" as="geometry" />
        </mxCell>
        <mxCell id="KIhVacgabyp0rp23NiQ3-35" value="   Spelar" style="shape=table;startSize=30;container=1;collapsible=1;childLayout=tableLayout;fixedRows=1;rowLines=0;fontStyle=1;align=left;resizeLast=1;" vertex="1" parent="Xf09CCIIPF4Ikrkz7xVH-1">
          <mxGeometry x="460" y="150" width="280" height="100" as="geometry" />
        </mxCell>
        <mxCell id="KIhVacgabyp0rp23NiQ3-36" value="" style="shape=partialRectangle;collapsible=0;dropTarget=0;pointerEvents=0;fillColor=none;top=0;left=0;bottom=1;right=0;points=[[0,0.5],[1,0.5]];portConstraint=eastwest;" vertex="1" parent="KIhVacgabyp0rp23NiQ3-35">
          <mxGeometry y="30" width="280" height="30" as="geometry" />
        </mxCell>
        <mxCell id="KIhVacgabyp0rp23NiQ3-37" value="ForeningsID" style="shape=partialRectangle;connectable=0;fillColor=none;top=0;left=0;bottom=0;right=0;fontStyle=5;overflow=hidden;" vertex="1" parent="KIhVacgabyp0rp23NiQ3-36">
          <mxGeometry width="90" height="30" as="geometry" />
        </mxCell>
        <mxCell id="KIhVacgabyp0rp23NiQ3-38" value="PlanID" style="shape=partialRectangle;connectable=0;fillColor=none;top=0;left=0;bottom=0;right=0;align=center;spacingLeft=6;fontStyle=5;overflow=hidden;" vertex="1" parent="KIhVacgabyp0rp23NiQ3-36">
          <mxGeometry x="90" width="80" height="30" as="geometry" />
        </mxCell>
        <mxCell id="KIhVacgabyp0rp23NiQ3-42" value="AskadarAntal" style="shape=partialRectangle;connectable=0;fillColor=none;top=0;left=0;bottom=0;right=0;align=center;spacingLeft=6;fontStyle=1;overflow=hidden;" vertex="1" parent="KIhVacgabyp0rp23NiQ3-36">
          <mxGeometry x="170" width="110" height="30" as="geometry" />
        </mxCell>
        <mxCell id="KIhVacgabyp0rp23NiQ3-39" style="shape=partialRectangle;collapsible=0;dropTarget=0;pointerEvents=0;fillColor=none;top=0;left=0;bottom=1;right=0;points=[[0,0.5],[1,0.5]];portConstraint=eastwest;" vertex="1" parent="KIhVacgabyp0rp23NiQ3-35">
          <mxGeometry y="60" width="280" height="30" as="geometry" />
        </mxCell>
        <mxCell id="KIhVacgabyp0rp23NiQ3-40" value="7" style="shape=partialRectangle;connectable=0;fillColor=none;top=0;left=0;bottom=0;right=0;fontStyle=0;overflow=hidden;" vertex="1" parent="KIhVacgabyp0rp23NiQ3-39">
          <mxGeometry width="90" height="30" as="geometry" />
        </mxCell>
        <mxCell id="KIhVacgabyp0rp23NiQ3-41" value="11" style="shape=partialRectangle;connectable=0;fillColor=none;top=0;left=0;bottom=0;right=0;align=center;spacingLeft=6;fontStyle=0;overflow=hidden;" vertex="1" parent="KIhVacgabyp0rp23NiQ3-39">
          <mxGeometry x="90" width="80" height="30" as="geometry" />
        </mxCell>
        <mxCell id="KIhVacgabyp0rp23NiQ3-43" value="12500" style="shape=partialRectangle;connectable=0;fillColor=none;top=0;left=0;bottom=0;right=0;align=center;spacingLeft=6;fontStyle=0;overflow=hidden;" vertex="1" parent="KIhVacgabyp0rp23NiQ3-39">
          <mxGeometry x="170" width="110" height="30" as="geometry" />
        </mxCell>
      </root>
    </mxGraphModel>
  </diagram>
</mxfile>
